<svg width="512" height="512" viewBox="0 0 512 512" fill="none" xmlns="http://www.w3.org/2000/svg">
  <rect width="512" height="512" rx="112" fill="#0F172A"/>
  <circle cx="256" cy="256" r="154" fill="#0098EA"/>
  <path d="M168 206C173 194 184 187 197 187H315C328 187 339 194 344 206C350 217 348 231 341 241L276 350C271 358 264 362 256 362C248 362 241 358 236 350L171 241C164 231 162 217 168 206Z" fill="white"/>
  <path d="M198 218H244V309L198 218ZM268 218H314L268 309V218Z" fill="#0098EA"/>
  <path d="M356 122L376 162L420 168L388 199L396 242L356 221L317 242L324 199L293 168L337 162L356 122Z" fill="#38BDF8"/>
</svg>
